<mxfile modified="2022-10-25T07:11:32.487Z" host="app.diagrams.net" agent="5.0 (Windows NT 10.0; Win64; x64) AppleWebKit/537.36 (KHTML, like Gecko) Chrome/106.0.0.0 Safari/537.36" etag="4zixZI2HdSb308gQ6XNe" version="20.4.0" type="github">
  <diagram id="WI9T0HZ2pTsCkuznbFz-" name="Page-1">
    <mxGraphModel dx="782" dy="436" grid="1" gridSize="10" guides="1" tooltips="1" connect="1" arrows="1" fold="1" page="1" pageScale="1" pageWidth="1169" pageHeight="827" math="0" shadow="0">
      <root>
        <mxCell id="0" />
        <mxCell id="1" parent="0" />
        <mxCell id="5vCUaBXBmJkEjkjv4doE-1" value="" style="verticalLabelPosition=bottom;html=1;verticalAlign=top;align=center;strokeColor=none;fillColor=#00BEF2;shape=mxgraph.azure.database;" parent="1" vertex="1">
          <mxGeometry x="160" y="240" width="37.5" height="50" as="geometry" />
        </mxCell>
        <mxCell id="5vCUaBXBmJkEjkjv4doE-4" value="" style="aspect=fixed;html=1;points=[];align=center;image;fontSize=12;image=img/lib/azure2/compute/Function_Apps.svg;fillColor=none;opacity=0;" parent="1" vertex="1">
          <mxGeometry x="390" y="170" width="68" height="60" as="geometry" />
        </mxCell>
        <mxCell id="5vCUaBXBmJkEjkjv4doE-10" value="" style="edgeStyle=orthogonalEdgeStyle;rounded=0;orthogonalLoop=1;jettySize=auto;html=1;" parent="1" source="5vCUaBXBmJkEjkjv4doE-6" target="5vCUaBXBmJkEjkjv4doE-1" edge="1">
          <mxGeometry relative="1" as="geometry" />
        </mxCell>
        <mxCell id="pMBmEq0e-n-IR1W7mqE0-2" value="" style="edgeStyle=orthogonalEdgeStyle;rounded=0;orthogonalLoop=1;jettySize=auto;html=1;" edge="1" parent="1" source="5vCUaBXBmJkEjkjv4doE-6" target="pMBmEq0e-n-IR1W7mqE0-1">
          <mxGeometry relative="1" as="geometry" />
        </mxCell>
        <mxCell id="5vCUaBXBmJkEjkjv4doE-6" value="" style="aspect=fixed;html=1;points=[];align=center;image;fontSize=12;image=img/lib/azure2/compute/Function_Apps.svg;fillColor=none;imageBackground=default;" parent="1" vertex="1">
          <mxGeometry x="144.75" y="130" width="68" height="60" as="geometry" />
        </mxCell>
        <mxCell id="5vCUaBXBmJkEjkjv4doE-7" value="Timer Function" style="text;html=1;align=center;verticalAlign=middle;resizable=0;points=[];autosize=1;strokeColor=none;fillColor=none;" parent="1" vertex="1">
          <mxGeometry x="128.75" y="100" width="100" height="30" as="geometry" />
        </mxCell>
        <mxCell id="5vCUaBXBmJkEjkjv4doE-8" value="1" style="ellipse;whiteSpace=wrap;html=1;aspect=fixed;strokeWidth=2;fontFamily=Tahoma;spacingBottom=4;spacingRight=2;strokeColor=#d3d3d3;fillColor=none;" parent="1" vertex="1">
          <mxGeometry x="108.75" y="140" width="20" height="20" as="geometry" />
        </mxCell>
        <mxCell id="5vCUaBXBmJkEjkjv4doE-9" value="2" style="ellipse;whiteSpace=wrap;html=1;aspect=fixed;strokeWidth=2;fontFamily=Tahoma;spacingBottom=4;spacingRight=2;strokeColor=#d3d3d3;fillColor=none;" parent="1" vertex="1">
          <mxGeometry x="144.75" y="210" width="20" height="20" as="geometry" />
        </mxCell>
        <mxCell id="5vCUaBXBmJkEjkjv4doE-11" value="Read DB for new &lt;br&gt;jobs" style="text;html=1;align=center;verticalAlign=middle;resizable=0;points=[];autosize=1;strokeColor=none;fillColor=none;" parent="1" vertex="1">
          <mxGeometry x="190" y="200" width="110" height="40" as="geometry" />
        </mxCell>
        <mxCell id="5vCUaBXBmJkEjkjv4doE-12" value="" style="aspect=fixed;html=1;points=[];align=center;image;fontSize=12;image=img/lib/azure2/compute/Function_Apps.svg;fillColor=none;imageBackground=default;" parent="1" vertex="1">
          <mxGeometry x="358" y="130" width="68" height="60" as="geometry" />
        </mxCell>
        <mxCell id="5vCUaBXBmJkEjkjv4doE-13" value="3" style="ellipse;whiteSpace=wrap;html=1;aspect=fixed;strokeWidth=2;fontFamily=Tahoma;spacingBottom=4;spacingRight=2;strokeColor=#d3d3d3;fillColor=none;" parent="1" vertex="1">
          <mxGeometry x="260" y="124" width="20" height="20" as="geometry" />
        </mxCell>
        <mxCell id="pMBmEq0e-n-IR1W7mqE0-8" style="edgeStyle=orthogonalEdgeStyle;rounded=0;orthogonalLoop=1;jettySize=auto;html=1;entryX=1;entryY=0.5;entryDx=0;entryDy=0;entryPerimeter=0;" edge="1" parent="1" source="pMBmEq0e-n-IR1W7mqE0-1" target="5vCUaBXBmJkEjkjv4doE-1">
          <mxGeometry relative="1" as="geometry">
            <Array as="points">
              <mxPoint x="406" y="265" />
            </Array>
          </mxGeometry>
        </mxCell>
        <mxCell id="pMBmEq0e-n-IR1W7mqE0-1" value="&lt;br&gt;&lt;br&gt;&lt;br&gt;&lt;br&gt;&lt;br&gt;&lt;br&gt;Process Job(s)" style="rounded=1;whiteSpace=wrap;html=1;fillColor=none;" vertex="1" parent="1">
          <mxGeometry x="331" y="105" width="149" height="110" as="geometry" />
        </mxCell>
        <mxCell id="5vCUaBXBmJkEjkjv4doE-15" value="" style="verticalLabelPosition=bottom;html=1;verticalAlign=top;align=center;strokeColor=none;fillColor=#00BEF2;shape=mxgraph.azure.autoscale;" parent="1" vertex="1">
          <mxGeometry x="340" y="90" width="50" height="30" as="geometry" />
        </mxCell>
        <mxCell id="pMBmEq0e-n-IR1W7mqE0-3" value="4" style="ellipse;whiteSpace=wrap;html=1;aspect=fixed;strokeWidth=2;fontFamily=Tahoma;spacingBottom=4;spacingRight=2;strokeColor=#d3d3d3;fillColor=none;" vertex="1" parent="1">
          <mxGeometry x="358" y="70" width="20" height="20" as="geometry" />
        </mxCell>
        <mxCell id="pMBmEq0e-n-IR1W7mqE0-4" value="Auto-Scale" style="text;html=1;align=center;verticalAlign=middle;resizable=0;points=[];autosize=1;strokeColor=none;fillColor=none;" vertex="1" parent="1">
          <mxGeometry x="372" y="65" width="80" height="30" as="geometry" />
        </mxCell>
        <mxCell id="pMBmEq0e-n-IR1W7mqE0-5" value="5" style="ellipse;whiteSpace=wrap;html=1;aspect=fixed;strokeWidth=2;fontFamily=Tahoma;spacingBottom=4;spacingRight=2;strokeColor=#d3d3d3;fillColor=none;" vertex="1" parent="1">
          <mxGeometry x="340" y="190" width="20" height="20" as="geometry" />
        </mxCell>
        <mxCell id="pMBmEq0e-n-IR1W7mqE0-6" value="6" style="ellipse;whiteSpace=wrap;html=1;aspect=fixed;strokeWidth=2;fontFamily=Tahoma;spacingBottom=4;spacingRight=2;strokeColor=#d3d3d3;fillColor=none;" vertex="1" parent="1">
          <mxGeometry x="264" y="272" width="16" height="16" as="geometry" />
        </mxCell>
        <mxCell id="pMBmEq0e-n-IR1W7mqE0-10" value="Update job status" style="text;html=1;align=center;verticalAlign=middle;resizable=0;points=[];autosize=1;strokeColor=none;fillColor=none;" vertex="1" parent="1">
          <mxGeometry x="272" y="265" width="120" height="30" as="geometry" />
        </mxCell>
      </root>
    </mxGraphModel>
  </diagram>
</mxfile>
